<svg xmlns="http://www.w3.org/2000/svg" xmlns:xlink="http://www.w3.org/1999/xlink" preserveAspectRatio="xMidYMid" width="39" height="39" viewBox="0 0 39 39">
  <defs>
    <style>
      .cls-1 {
        fill: #ececec;
        filter: url(#color-overlay-1);
        fill-rule: evenodd;
      }
    </style>

    <filter id="color-overlay-1" filterUnits="userSpaceOnUse">
      <feFlood flood-color="#ececec"/>
      <feComposite operator="in" in2="SourceGraphic"/>
      <feBlend in2="SourceGraphic" result="solidFill"/>
    </filter>
  </defs>
  <path d="M23.156,34.125 C17.503,34.125 12.554,31.154 9.750,26.698 L9.750,26.813 L7.312,26.813 C3.274,26.813 -0.000,23.538 -0.000,19.500 L-0.000,14.625 C-0.000,13.278 1.090,12.187 2.438,12.187 L37.781,12.187 C38.455,12.187 39.000,12.733 39.000,13.406 L39.000,18.281 C39.000,27.032 31.906,34.125 23.156,34.125 ZM7.312,18.281 L7.312,14.625 L3.656,14.625 C2.983,14.625 2.438,15.170 2.438,15.844 L2.438,19.500 C2.438,22.192 4.620,24.375 7.312,24.375 L8.531,24.375 C7.748,22.499 7.312,20.442 7.312,18.281 ZM36.563,14.625 L9.750,14.625 L9.750,18.281 C9.750,25.686 15.752,31.688 23.156,31.688 C30.560,31.688 36.563,25.686 36.563,18.281 L36.563,14.625 ZM30.469,9.750 C29.795,9.750 29.250,9.205 29.250,8.531 L29.250,6.094 C29.250,5.420 29.795,4.875 30.469,4.875 C31.142,4.875 31.687,5.420 31.687,6.094 L31.687,8.531 C31.687,9.205 31.142,9.750 30.469,9.750 ZM23.156,9.750 C22.483,9.750 21.937,9.205 21.937,8.531 L21.937,1.219 C21.937,0.545 22.483,-0.000 23.156,-0.000 C23.830,-0.000 24.375,0.545 24.375,1.219 L24.375,8.531 C24.375,9.205 23.830,9.750 23.156,9.750 ZM15.844,9.750 C15.170,9.750 14.625,9.205 14.625,8.531 L14.625,3.656 C14.625,2.983 15.170,2.438 15.844,2.438 C16.517,2.438 17.062,2.983 17.062,3.656 L17.062,8.531 C17.062,9.205 16.517,9.750 15.844,9.750 ZM8.531,36.563 L37.781,36.563 C38.455,36.563 39.000,37.108 39.000,37.781 C39.000,38.455 38.455,39.000 37.781,39.000 L8.531,39.000 C7.858,39.000 7.312,38.455 7.312,37.781 C7.312,37.108 7.858,36.563 8.531,36.563 Z" class="cls-1"/>
</svg>
