<svg xmlns="http://www.w3.org/2000/svg" xmlns:xlink="http://www.w3.org/1999/xlink" preserveAspectRatio="xMidYMid" width="24.156" height="24" viewBox="0 0 24.156 24">
  <defs>
    <style>
      .cls-1 {
        fill: #ffffff;
        fill-rule: evenodd;
      }
    </style>
  </defs>
  <path d="M21.412,20.272 C21.412,20.803 20.987,21.225 20.452,21.225 L3.636,21.225 C3.102,21.225 2.677,20.803 2.677,20.272 L2.677,10.148 L4.895,10.148 C4.690,10.789 4.580,11.492 4.580,12.195 C4.580,16.194 7.947,19.428 12.084,19.428 C16.237,19.428 19.603,16.194 19.603,12.195 C19.603,11.492 19.493,10.789 19.288,10.148 L21.412,10.148 L21.412,10.148 L21.412,20.272 ZM16.944,11.945 C16.944,14.523 14.774,16.616 12.084,16.616 C9.410,16.616 7.239,14.523 7.239,11.945 C7.239,9.367 9.410,7.274 12.084,7.274 C14.774,7.274 16.944,9.367 16.944,11.945 ZM21.412,6.320 C21.412,6.914 20.924,7.398 20.327,7.398 L17.589,7.398 C16.992,7.398 16.504,6.914 16.504,6.320 L16.504,3.742 C16.504,3.149 16.992,2.664 17.589,2.664 L17.589,2.664 L20.327,2.664 C20.924,2.664 21.412,3.149 21.412,3.742 L21.412,6.320 ZM24.149,3.071 C24.149,1.383 22.749,-0.007 21.050,-0.007 L3.086,-0.007 L3.086,-0.007 C1.387,-0.007 -0.013,1.383 -0.013,3.071 L-0.013,20.912 C-0.013,22.600 1.387,23.990 3.086,23.990 L21.050,23.990 C22.749,23.990 24.149,22.600 24.149,20.912 L24.149,3.071 Z" class="cls-1"/>
</svg>
