<svg xmlns="http://www.w3.org/2000/svg" xmlns:xlink="http://www.w3.org/1999/xlink" preserveAspectRatio="xMidYMid" width="24.781" height="20" viewBox="0 0 24.781 20">
  <defs>
    <style>
      .cls-1 {
        fill: #f5d76e;
        fill-rule: evenodd;
      }
    </style>
  </defs>
  <path d="M24.785,2.367 C23.873,2.758 22.882,3.039 21.860,3.148 C22.914,2.523 23.716,1.539 24.093,0.368 C23.118,0.946 22.017,1.368 20.869,1.586 C19.941,0.602 18.619,-0.007 17.156,-0.007 C14.340,-0.007 12.075,2.258 12.075,5.039 C12.075,5.430 12.122,5.820 12.201,6.195 C7.985,5.977 4.226,3.977 1.725,0.914 C1.284,1.665 1.032,2.523 1.032,3.461 C1.032,5.211 1.929,6.758 3.298,7.664 C2.464,7.632 1.677,7.398 1.001,7.023 C1.001,7.039 1.001,7.070 1.001,7.086 C1.001,9.539 2.747,11.570 5.075,12.038 C4.650,12.147 4.194,12.210 3.738,12.210 C3.408,12.210 3.093,12.179 2.778,12.132 C3.423,14.132 5.295,15.585 7.529,15.632 C5.783,16.991 3.596,17.788 1.221,17.788 C0.796,17.788 0.403,17.772 -0.006,17.725 C2.244,19.163 4.918,19.990 7.797,19.990 C17.140,19.990 22.253,12.304 22.253,5.633 C22.253,5.414 22.253,5.195 22.237,4.976 C23.228,4.258 24.093,3.367 24.785,2.367 Z" class="cls-1"/>
</svg>
